<?xml version="1.0" encoding="UTF-8"?>
<svg id="Layer_1" data-name="Layer 1" xmlns="http://www.w3.org/2000/svg" viewBox="0 0 1920 1080">
  <defs>
    <style>
      .cls-1 {
        fill: #fff;
      }
    </style>
  </defs>
  <g id="logo_white">
    <g>
      <path class="cls-1" d="M418.98,565.62l-29.46,33.98v48.58h-48.31v-216.34h48.31v101.93l86.53-101.93h59.19l-84.94,97.95,89.45,118.39h-60.26l-60.52-82.55Z"/>
      <path class="cls-1" d="M719.2,497.14h-49.9c-2.92-18.85-16.99-30.26-40.08-30.26s-35.04,9.03-35.04,22.03c0,16.19,16.72,21.77,58.93,30.53,49.9,10.35,66.89,35.04,66.89,67.42,0,41.41-39.02,66.63-87.33,66.63-53.35,0-92.37-28.93-94.5-75.12h49.64c2.65,20.7,20.7,34.51,48.31,34.51,19.64,0,34.24-9.82,34.24-23.89,0-17.25-14.6-24.16-53.09-31.32-46.98-8.76-72.47-28.14-72.47-68.75s38.75-62.38,87.6-62.38,84.41,29.46,86.8,70.61Z"/>
      <path class="cls-1" d="M878.74,606.23h-83.88l-15.13,41.94h-49.9l83.88-216.34h50.17l83.88,216.34h-53.88l-15.13-41.94Zm-14.86-41.94l-27.08-75.39-27.08,75.39h54.15Z"/>
      <path class="cls-1" d="M1136.49,497.14h-49.9c-2.92-18.85-16.99-30.26-40.08-30.26s-35.04,9.03-35.04,22.03c0,16.19,16.72,21.77,58.93,30.53,49.9,10.35,66.89,35.04,66.89,67.42,0,41.41-39.02,66.63-87.33,66.63-53.35,0-92.37-28.93-94.5-75.12h49.64c2.65,20.7,20.7,34.51,48.31,34.51,19.64,0,34.24-9.82,34.24-23.89,0-17.25-14.6-24.16-53.09-31.32-46.98-8.76-72.47-28.14-72.47-68.75s38.75-62.38,87.6-62.38,84.41,29.46,86.8,70.61Z"/>
      <path class="cls-1" d="M1165.69,431.84h158.73v42.47h-110.42v49.11h98.21v41.94h-98.21v82.82h-48.31v-216.34Z"/>
    </g>
    <polygon class="cls-1" points="570.78 766.96 240 766.96 240 313.05 473.79 313.05 473.79 339.69 266.63 339.69 266.63 740.33 570.78 740.33 570.78 766.96"/>
    <path class="cls-1" d="M1542.11,402.12c-33.23,0-63.75,11.82-87.58,31.47l-120.54-120.54h-139.17v26.63h128.14l112.74,112.74c-19.65,23.83-31.47,54.35-31.47,87.58s11.82,63.75,31.47,87.58l-112.74,112.74h-225.34v26.63h236.37l120.54-120.54c23.83,19.65,54.35,31.47,87.58,31.47,76.03,0,137.89-61.85,137.89-137.88s-61.86-137.89-137.89-137.89Zm-14.92,248.11l-33.99-102.93,5.16-5.16,14.58,14.58,14.58-14.58,14.58,14.58,14.58-14.58,14.58,14.58,14.58-14.58,5.16,5.16-33.99,102.93c-4.88,.66-9.86,1.03-14.92,1.03s-10.03-.37-14.92-1.03Zm44.88-3.1l34.16-103.44-20.38-20.38-14.58,14.58-14.58-14.58-14.58,14.58-14.58-14.58-14.58,14.58-14.58-14.58-20.38,20.38,34.16,103.44c-46.83-13.12-81.28-56.16-81.28-107.12,0-61.34,49.91-111.25,111.25-111.25s111.25,49.91,111.25,111.25c0,50.96-34.45,94-81.28,107.12Z"/>
    <g>
      <path class="cls-1" d="M519.93,328.23l-6.11,6.78v8.35h-4.45v-33.97h4.45v19.59l17.43-19.59h5.55l-13.99,15.6,14.97,18.36h-5.68l-12.17-15.14Z"/>
      <path class="cls-1" d="M537.19,326.37c0-10.26,7.59-17.77,17.89-17.77s17.94,7.51,17.94,17.77-7.59,17.77-17.89,17.77-17.94-7.51-17.94-17.77Zm31.38,0c0-8.01-5.72-13.7-13.48-13.7s-13.44,5.68-13.44,13.7,5.72,13.7,13.48,13.7,13.44-5.72,13.44-13.7Z"/>
      <path class="cls-1" d="M601.22,343.37l-7.72-12.08c-.64,.04-1.27,.08-1.91,.08h-8.27v12h-4.45v-33.97h12.72c8.57,0,13.61,4.28,13.61,10.98,0,4.79-2.59,8.35-7.25,10.01l8.52,12.98h-5.26Zm-.47-22.98c0-4.58-3.6-7-9.5-7h-7.93v13.99h7.93c5.89,0,9.5-2.42,9.5-7Z"/>
      <path class="cls-1" d="M635.35,309.41v3.94h-19.68v10.69h18.19v3.94h-18.19v11.45h20.06v3.94h-24.51v-33.97h24.13Z"/>
      <path class="cls-1" d="M663.08,334.98h-16.33l-3.39,8.4h-4.66l13.99-33.97h4.71l13.95,33.97h-4.88l-3.39-8.4Zm-1.57-3.94l-6.57-16.41-6.62,16.41h13.19Z"/>
      <path class="cls-1" d="M713.67,318.78h-4.58c-.47-3.6-3.73-6.36-9.03-6.36s-8.35,2.21-8.35,5.26c0,3.52,3.14,5.05,10.39,6.57,8.35,1.78,11.7,5,11.7,10.05,0,6.11-5.98,9.84-13.53,9.84-7.93,0-13.65-4.33-14.12-10.9h4.58c.47,4.11,4.16,7.04,9.84,7.04,5.09,0,8.69-2.33,8.69-5.72,0-3.77-3.1-5.3-10.47-6.87-7.68-1.61-11.58-4.37-11.58-10.01s5.55-9.07,13.06-9.07,12.98,4.24,13.4,10.18Z"/>
      <path class="cls-1" d="M717.95,326.37c0-10.26,7.55-17.77,17.81-17.77,8.78,0,14.84,5.09,16.62,12.21h-4.54c-1.44-4.79-5.81-8.1-12-8.1-7.8,0-13.44,5.68-13.44,13.65s5.68,13.65,13.44,13.65c6.36,0,11.11-3.73,12.34-8.57h4.54c-1.48,7.08-7.97,12.68-16.96,12.68-10.26,0-17.81-7.51-17.81-17.77Z"/>
      <path class="cls-1" d="M762.86,343.37h-4.45v-33.97h4.45v33.97Z"/>
      <path class="cls-1" d="M794.28,309.41v3.94h-19.68v10.69h18.19v3.94h-18.19v11.45h20.06v3.94h-24.51v-33.97h24.13Z"/>
      <path class="cls-1" d="M804.54,309.41l20.57,26.46v-26.67h4.5v33.97h-4.2l-20.57-26.46v26.67h-4.45v-33.97h4.16Z"/>
      <path class="cls-1" d="M835.37,326.37c0-10.26,7.55-17.77,17.81-17.77,8.78,0,14.84,5.09,16.62,12.21h-4.54c-1.44-4.79-5.81-8.1-12-8.1-7.8,0-13.44,5.68-13.44,13.65s5.68,13.65,13.44,13.65c6.36,0,11.11-3.73,12.34-8.57h4.54c-1.48,7.08-7.97,12.68-16.96,12.68-10.26,0-17.81-7.51-17.81-17.77Z"/>
      <path class="cls-1" d="M899.95,309.41v3.94h-19.68v10.69h18.19v3.94h-18.19v11.45h20.06v3.94h-24.51v-33.97h24.13Z"/>
      <path class="cls-1" d="M939.56,334.98h-16.33l-3.39,8.4h-4.66l13.99-33.97h4.71l13.95,33.97h-4.88l-3.39-8.4Zm-1.57-3.94l-6.57-16.41-6.62,16.41h13.19Z"/>
      <path class="cls-1" d="M949.18,326.37c0-10.26,7.55-17.77,17.81-17.77,8.78,0,14.84,5.09,16.62,12.21h-4.54c-1.44-4.79-5.81-8.1-12-8.1-7.8,0-13.44,5.68-13.44,13.65s5.68,13.65,13.44,13.65c6.36,0,11.11-3.73,12.34-8.57h4.54c-1.48,7.08-7.97,12.68-16.96,12.68-10.26,0-17.81-7.51-17.81-17.77Z"/>
      <path class="cls-1" d="M1009.56,334.98h-16.33l-3.39,8.4h-4.66l13.99-33.97h4.71l13.95,33.97h-4.88l-3.39-8.4Zm-1.57-3.94l-6.57-16.41-6.62,16.41h13.19Z"/>
      <path class="cls-1" d="M1034.41,309.41c11.7,0,18.49,6.87,18.49,17s-6.78,16.96-18.49,16.96h-12.04v-33.97h12.04Zm13.99,17c0-8.27-5.26-13.02-13.87-13.02h-7.72v25.95h7.72c8.61,0,13.87-4.66,13.87-12.93Z"/>
      <path class="cls-1" d="M1082.88,309.41v3.94h-19.68v10.69h18.19v3.94h-18.19v11.45h20.06v3.94h-24.51v-33.97h24.13Z"/>
      <path class="cls-1" d="M1092.89,309.41l13.1,23.07,13.1-23.07h3.9v33.97h-4.45v-25.06l-10.94,19.34h-3.22l-10.94-19.34v25.06h-4.45v-33.97h3.9Z"/>
      <path class="cls-1" d="M1145.51,332.01v11.36h-4.49v-11.36l-13.31-22.6h5.05l10.69,18.45,11.02-18.45h4.79l-13.74,22.6Z"/>
    </g>
    <g>
      <path class="cls-1" d="M634.89,746.07h-4.57c-.47-3.6-3.72-6.35-9.01-6.35s-8.34,2.2-8.34,5.25c0,3.51,3.13,5.04,10.37,6.56,8.34,1.78,11.68,4.99,11.68,10.03,0,6.09-5.97,9.82-13.5,9.82-7.91,0-13.62-4.32-14.09-10.87h4.57c.47,4.1,4.15,7.02,9.82,7.02,5.08,0,8.67-2.33,8.67-5.71,0-3.77-3.09-5.29-10.45-6.85-7.66-1.61-11.55-4.36-11.55-9.99s5.54-9.06,13.03-9.06,12.95,4.23,13.37,10.16Z"/>
      <path class="cls-1" d="M639.16,753.65c0-10.24,7.53-17.73,17.77-17.73,8.76,0,14.81,5.08,16.59,12.19h-4.53c-1.44-4.78-5.8-8.08-11.97-8.08-7.79,0-13.41,5.67-13.41,13.62s5.67,13.62,13.41,13.62c6.35,0,11.09-3.72,12.31-8.55h4.53c-1.48,7.07-7.96,12.65-16.93,12.65-10.24,0-17.77-7.49-17.77-17.73Z"/>
      <path class="cls-1" d="M683.97,770.61h-4.44v-33.89h4.44v33.89Z"/>
      <path class="cls-1" d="M715.33,736.72v3.94h-19.63v10.66h18.15v3.94h-18.15v11.42h20.01v3.94h-24.46v-33.89h24.08Z"/>
      <path class="cls-1" d="M725.57,736.72l20.52,26.4v-26.61h4.49v33.89h-4.19l-20.52-26.4v26.61h-4.44v-33.89h4.15Z"/>
      <path class="cls-1" d="M756.33,753.65c0-10.24,7.53-17.73,17.77-17.73,8.76,0,14.81,5.08,16.59,12.19h-4.53c-1.44-4.78-5.8-8.08-11.97-8.08-7.79,0-13.41,5.67-13.41,13.62s5.67,13.62,13.41,13.62c6.35,0,11.09-3.72,12.31-8.55h4.53c-1.48,7.07-7.96,12.65-16.93,12.65-10.24,0-17.77-7.49-17.77-17.73Z"/>
      <path class="cls-1" d="M820.77,736.72v3.94h-19.63v10.66h18.15v3.94h-18.15v11.42h20.01v3.94h-24.46v-33.89h24.08Z"/>
      <path class="cls-1" d="M862.4,736.72v3.98h-19.25v11.55l17.39-.04v3.98h-17.39v14.43h-4.44v-33.89h23.7Z"/>
      <path class="cls-1" d="M885.38,762.24h-16.29l-3.38,8.38h-4.65l13.96-33.89h4.7l13.92,33.89h-4.87l-3.39-8.38Zm-1.57-3.94l-6.56-16.37-6.6,16.37h13.16Z"/>
      <path class="cls-1" d="M902.6,770.61h-4.44v-33.89h4.44v33.89Z"/>
      <path class="cls-1" d="M932.18,770.61l-7.7-12.06c-.63,.04-1.27,.08-1.9,.08h-8.25v11.97h-4.44v-33.89h12.69c8.55,0,13.58,4.27,13.58,10.96,0,4.78-2.58,8.34-7.24,9.99l8.5,12.95h-5.25Zm-.47-22.93c0-4.57-3.6-6.98-9.48-6.98h-7.91v13.96h7.91c5.88,0,9.48-2.41,9.48-6.98Z"/>
      <path class="cls-1" d="M952.45,767.74l12.02-12.06c4.32-4.36,6.01-7.11,6.01-9.52,0-3.98-2.71-6.3-6.94-6.3-4.57,0-7.02,3.47-7.02,7.24h-4.44c0-6.14,4.44-11.17,11.51-11.17s11.3,4.1,11.3,10.2c0,3.64-2.07,6.73-7.15,11.93l-8.89,8.72h17.18v3.85h-23.57v-2.88Z"/>
      <path class="cls-1" d="M980.29,753.65c0-11.85,5.37-17.73,12.52-17.73s12.48,5.88,12.48,17.73-5.37,17.73-12.48,17.73-12.52-5.88-12.52-17.73Zm20.73,0c0-9.18-3.64-13.79-8.21-13.79s-8.25,4.61-8.25,13.79,3.64,13.79,8.25,13.79,8.21-4.57,8.21-13.79Z"/>
      <path class="cls-1" d="M1009.53,767.74l12.02-12.06c4.32-4.36,6.01-7.11,6.01-9.52,0-3.98-2.71-6.3-6.94-6.3-4.57,0-7.02,3.47-7.02,7.24h-4.44c0-6.14,4.44-11.17,11.51-11.17s11.3,4.1,11.3,10.2c0,3.64-2.07,6.73-7.15,11.93l-8.89,8.72h17.18v3.85h-23.57v-2.88Z"/>
      <path class="cls-1" d="M1037.03,761.05h4.4c.13,3.64,2.83,6.47,7.62,6.47s7.57-2.71,7.57-6.09c0-3.81-3.05-6.05-8.17-6.05h-3.72v-3.68h3.72c4.32,0,7.24-2.45,7.24-5.97,0-3.3-2.62-6.01-7.11-6.01s-7.07,3.22-7.07,6.81h-4.44c0-5.97,4.57-10.62,11.51-10.62s11.51,4.36,11.51,9.69c0,4.15-2.92,7.02-6.05,7.79,3.43,.63,6.94,3.3,6.94,8,0,5.67-4.82,9.99-11.93,9.99s-11.76-4.4-12.02-10.32Z"/>
    </g>
  </g>
</svg>