<?xml version="1.0" encoding="utf-8"?>
<!-- Generator: Adobe Illustrator 25.1.0, SVG Export Plug-In . SVG Version: 6.00 Build 0)  -->
<svg version="1.1" id="레이어_1" xmlns="http://www.w3.org/2000/svg" xmlns:xlink="http://www.w3.org/1999/xlink" x="0px"
	 y="0px" viewBox="0 0 972.3 183.2" style="enable-background:new 0 0 972.3 183.2;" xml:space="preserve">
<style type="text/css">
	.st0{display:none;}
	.st1{display:inline;}
	.st2{fill:#FFFFFF;}
</style>
<g id="레이어_2_1_" class="st0">
	<rect x="-153.9" y="-268.4" class="st1" width="1280" height="720"/>
</g>
<g id="Layer_1">
	<g>
		<g>
			<path class="st2" d="M47.1,18.5h-13c-0.8-4.9-4.4-7.9-10.4-7.9s-9.1,2.3-9.1,5.7c0,4.2,4.4,5.7,15.4,8c13,2.7,17.4,9.1,17.4,17.6
				c0,10.8-10.2,17.4-22.8,17.4C10.7,59.3,0.5,51.8,0,39.7h12.9c0.7,5.4,5.4,9,12.6,9c5.1,0,8.9-2.6,8.9-6.2c0-4.5-3.8-6.3-13.8-8.2
				C8.4,32,1.7,27,1.7,16.4S11.8,0.2,24.5,0.2S46.5,7.8,47.1,18.5L47.1,18.5z"/>
			<path class="st2" d="M52.2,29.6C52.2,12.5,65,0,82.4,0c15.5,0,25.9,9.3,28.2,21.2H97.9c-1.3-5.4-7.1-9.7-15.2-9.7
				c-10.2,0-17.8,7.5-17.8,18s7.6,18,17.8,18c8.1,0,14.7-5.3,15.7-10.4h12.7c-1.7,11.3-13.1,22-28.7,22C65,59.2,52.2,46.7,52.2,29.6
				L52.2,29.6z"/>
			<path class="st2" d="M130.9,1.5v56.4h-12.6V1.5H130.9z"/>
			<path class="st2" d="M140.9,1.5h41.9v10.9h-29.3v11.5h26.9v10.9h-26.9v12.1h30v10.9H141V1.5H140.9z"/>
			<path class="st2" d="M191.9,1.5h10.5l28.2,33.9V0.8h12.5v56.4h-10.5l-28.2-33.9v34.6h-12.6V1.5H191.9z"/>
			<path class="st2" d="M250.6,29.6c0-17.1,12.8-29.6,30.2-29.6c15.5,0,25.9,9.3,28.2,21.2h-12.7c-1.3-5.4-7.1-9.7-15.2-9.7
				c-10.2,0-17.8,7.5-17.8,18s7.6,18,17.8,18c8.1,0,14.7-5.3,15.7-10.4h12.7c-1.7,11.3-13.1,22-28.7,22
				C263.4,59.2,250.6,46.7,250.6,29.6L250.6,29.6z"/>
			<path class="st2" d="M316.7,1.5h41.9v10.9h-29.3v11.5h26.9v10.9h-26.9v12.1h29.9v10.9h-42.5L316.7,1.5L316.7,1.5z"/>
			<path class="st2" d="M408.9,46.5h-17.3l-3.6,8.9h-4.9l14.8-36h5l14.8,36h-5.2L408.9,46.5L408.9,46.5z M407.3,42.3l-7-17.4
				l-7,17.4H407.3L407.3,42.3z"/>
			<path class="st2" d="M426.9,19.3l21.8,28.1V19.1h4.8v36h-4.4L427.3,27v28.3h-4.7v-36H426.9L426.9,19.3z"/>
			<path class="st2" d="M474,19.3c12.4,0,19.6,7.3,19.6,18s-7.2,18-19.6,18h-12.8v-36H474z M488.8,37.4c0-8.8-5.6-13.8-14.7-13.8
				h-8.2v27.5h8.2C483.3,51.1,488.8,46.1,488.8,37.4L488.8,37.4z"/>
			<path class="st2" d="M527.9,23.6v31.8h-4.7V23.6h-13v-4.2h30.6v4.2H527.9z"/>
			<path class="st2" d="M576.8,19.3v36h-4.7V39h-20.9v16.3h-4.7v-36h4.7v15.4h20.9V19.3H576.8z"/>
			<path class="st2" d="M610.2,19.3v4.2h-20.9v11.3h19.3V39h-19.3v12.2h21.3v4.2h-26v-36L610.2,19.3L610.2,19.3z"/>
			<path class="st2" d="M637.1,1.5h41.4v11.1h-28.8v12.8h25.6v10.9h-25.6v21.6h-12.6V1.5L637.1,1.5z"/>
			<path class="st2" d="M684.7,1.5h12.6v31.4c0,9,5,15,13.2,15s13.2-6,13.2-15V1.5h12.6v31.4c0,16-10.3,26.4-25.8,26.4
				s-25.8-10.4-25.8-26.4V1.5L684.7,1.5z"/>
			<path class="st2" d="M791.7,12.6h-18.3v45.2h-12.6V12.6h-18.3V1.5h49.2L791.7,12.6L791.7,12.6z"/>
			<path class="st2" d="M797.7,1.5h12.6v31.4c0,9,5,15,13.2,15s13.2-6,13.2-15V1.5h12.6v31.4c0,16-10.3,26.4-25.8,26.4
				s-25.8-10.4-25.8-26.4V1.5L797.7,1.5z"/>
			<path class="st2" d="M892.2,57.9l-10.9-17.8h-10v17.8h-12.6V1.5h22.7c14.3,0,22.7,7.6,22.7,19.3c0,7.8-3.7,13.7-10.3,16.8
				l13.1,20.3L892.2,57.9L892.2,57.9z M871.2,28.9h9.6c6.6,0,10.7-2.8,10.7-8.2s-4-8.2-10.7-8.2h-9.6V28.9z"/>
			<path class="st2" d="M912.6,1.5h41.9v10.9h-29.3v11.5h26.9v10.9h-26.9v12.1h29.9v10.9h-42.5V1.5z"/>
			<path class="st2" d="M972.3,15.9c0,2.7-2.1,4.8-4.8,4.8c-2.7,0-4.8-2.1-4.8-4.8c0-2.7,2.1-4.8,4.8-4.8S972.3,13.2,972.3,15.9z
				 M972.3,43.5c0,2.7-2.1,4.8-4.8,4.8c-2.7,0-4.8-2.1-4.8-4.8c0-2.7,2.1-4.8,4.8-4.8S972.3,40.7,972.3,43.5z"/>
		</g>
		<g>
			<path class="st2" d="M2.5,125.4h41.9v10.9H15.1v11.5H42v10.9H15.1v12.1h30v10.9H2.6v-56.3H2.5z"/>
			<path class="st2" d="M67.8,153.4l-18-27.9h14.9L76,143.9l11.7-18.4h14.4L84,153l18.7,28.8H88l-12.1-19.4l-12.4,19.4H49.2
				L67.8,153.4L67.8,153.4z"/>
			<path class="st2" d="M108.3,125.4H130c14.7,0,23.2,8.2,23.2,20.6s-8.6,20.8-23.2,20.8h-9.1v15h-12.6V125.4z M129.4,155.6
				c7,0,11.2-3.3,11.2-9.6s-4.2-9.5-11.2-9.5h-8.5v19.1H129.4L129.4,155.6z"/>
			<path class="st2" d="M172.6,125.4v45.2h28.2v11.1h-40.7v-56.4L172.6,125.4L172.6,125.4z"/>
			<path class="st2" d="M203.4,153.6c0-17.1,12.9-29.6,30.4-29.6s30.4,12.5,30.4,29.6s-12.9,29.6-30.4,29.6S203.4,170.6,203.4,153.6
				z M251.7,153.6c0-10.7-7.6-18.3-17.8-18.3s-17.8,7.6-17.8,18.3s7.6,18.3,17.8,18.3S251.7,164.1,251.7,153.6z"/>
			<path class="st2" d="M305.3,181.8L294.4,164h-10v17.8h-12.6v-56.4h22.7c14.3,0,22.7,7.6,22.7,19.3c0,7.8-3.7,13.7-10.3,16.8
				l13.1,20.3L305.3,181.8L305.3,181.8z M284.4,152.9h9.6c6.6,0,10.7-2.8,10.7-8.2s-4-8.2-10.7-8.2h-9.6V152.9L284.4,152.9z"/>
			<path class="st2" d="M325.7,125.4h41.9v10.9h-29.3v11.5h26.9v10.9h-26.9v12.1h29.9v10.9h-42.5L325.7,125.4L325.7,125.4z"/>
			<path class="st2" d="M410.5,147.5v31.8h-4.7v-31.8h-13v-4.2h30.6v4.2H410.5z"/>
			<path class="st2" d="M459.4,143.3v36h-4.7V163h-20.9v16.3h-4.7v-36h4.7v15.4h20.9v-15.4H459.4z"/>
			<path class="st2" d="M492.7,143.3v4.2h-20.9v11.3h19.3v4.2h-19.3v12.2h21.3v4.2h-26v-36L492.7,143.3L492.7,143.3z"/>
			<path class="st2" d="M569.7,125.4v56.4h-12.6v-22.9h-24.9v22.9h-12.6v-56.4h12.6v22.3h24.9v-22.3H569.7z"/>
			<path class="st2" d="M577.2,153.6c0-17.1,12.9-29.6,30.4-29.6s30.5,12.5,30.5,29.6s-12.9,29.6-30.4,29.6S577.2,170.6,577.2,153.6
				z M625.5,153.6c0-10.7-7.6-18.3-17.8-18.3s-17.8,7.6-17.8,18.3s7.6,18.3,17.8,18.3S625.5,164.1,625.5,153.6z"/>
			<path class="st2" d="M679.1,181.8L668.2,164h-10v17.8h-12.6v-56.4h22.7c14.3,0,22.7,7.6,22.7,19.3c0,7.8-3.7,13.7-10.3,16.8
				l13.1,20.3L679.1,181.8L679.1,181.8z M658.2,152.9h9.6c6.6,0,10.7-2.8,10.7-8.2s-4-8.2-10.7-8.2h-9.6V152.9L658.2,152.9z"/>
			<path class="st2" d="M712.1,125.4v56.4h-12.6v-56.4H712.1z"/>
			<path class="st2" d="M719.8,173.5l28-37.1h-26.6v-10.9h43.7v8.3l-28,37.1h29.4v10.9h-46.5L719.8,173.5L719.8,173.5z"/>
			<path class="st2" d="M769.4,153.6c0-17.1,12.9-29.6,30.4-29.6s30.4,12.5,30.4,29.6s-12.9,29.6-30.4,29.6S769.4,170.6,769.4,153.6
				z M817.7,153.6c0-10.7-7.6-18.3-17.8-18.3s-17.8,7.6-17.8,18.3s7.6,18.3,17.8,18.3S817.7,164.1,817.7,153.6z"/>
			<path class="st2" d="M837.7,125.4h10.5l28.2,33.9v-34.6H889v56.4h-10.5l-28.1-33.9v34.6h-12.6L837.7,125.4L837.7,125.4z"/>
		</g>
	</g>
</g>
</svg>
